<svg xmlns="http://www.w3.org/2000/svg" xmlns:xlink="http://www.w3.org/1999/xlink" viewBox="0 0 180.38 34.77">
  <defs>
    <style>
      .cls-1, .cls-4 {
        fill: none;
      }

      .cls-2 {
        clip-path: url(#clip-path);
      }

      .cls-3 {
        fill: #fff;
      }

      .cls-4 {
        stroke: #047bc1;
        stroke-miterlimit: 2.61;
        stroke-width: 0.25px;
      }

      .cls-5 {
        fill: #047bc1;
      }
    </style>
    <clipPath id="clip-path">
      <rect class="cls-1" x="0.12" y="0.13" width="180.26" height="34.52"/>
    </clipPath>
  </defs>
  <title>Asset 3</title>
  <g id="Layer_2" data-name="Layer 2">
    <g id="Layer_1-2" data-name="Layer 1">
      <g class="cls-2">
        <path class="cls-3" d="M17.39,34.32A16.93,16.93,0,1,0,.45,17.39,17,17,0,0,0,17.39,34.32"/>
        <path class="cls-4" d="M17.39,34.65A17.26,17.26,0,1,0,.13,17.39,17.29,17.29,0,0,0,17.39,34.65Z"/>
        <path class="cls-5" d="M22.86,1.6A17.58,17.58,0,0,0,17.62.71h-.76a15.37,15.37,0,0,0-3.41.41c2.13.48,6.18,1.48,8.45,2.2s5.53,2,6,2.24.86.48.79,1-.86.62-1.37.48S22.49,5.7,22.14,5.59s-.86-.14-.89,0-.07.21.62.52,6.42,3,7.15,3.37,1.13.89,1,1.31-.76.58-1.65.28-6.84-2.65-7.21-2.82-.82-.17-.86-.07.24.38.62.62,7.25,3.65,8,4.09,1.1.93.93,1.34-.69.62-1.58.24c-1.37-.62-6.84-3.2-7.45-3.41s-1.31-.48-1.41-.31.41.55,1,1,5.43,3.51,6.18,4.06A1.11,1.11,0,0,1,27,17.29c-.21.34-.76.34-1.3,0-.82-.45-6.6-3.71-7.83-4.47S15,11.75,14.65,12s-.55,1.31.14,3,1,2.72.52,3.3-.76.21-1.1-.24a55.44,55.44,0,0,1-3.09-4.75c-.86-1.48-2-4.13-2.47-4.92a8.53,8.53,0,0,0-3-2.79A16.71,16.71,0,0,0,.74,16.49q0,.3,0,.61V18A17.08,17.08,0,0,0,3.35,26.4a17.33,17.33,0,0,0,8.86,6.84,16.81,16.81,0,0,0,9.21.34c-2.16-.48-6.36-1.44-8.62-2.2s-5.43-2-5.94-2.24-.89-.48-.79-1,.86-.62,1.37-.48l5.22,1.41c.34.1.83.14.89,0s0-.24-.62-.52-6.42-3-7.18-3.37-1.13-.93-.93-1.31.72-.62,1.61-.28,6.87,2.61,7.25,2.79.79.21.82.07-.21-.38-.58-.59-7.28-3.68-8-4.09-1.13-1-.93-1.38.69-.62,1.58-.21c1.34.58,6.84,3.16,7.45,3.41s1.31.48,1.41.28-.41-.55-1-1S9,19.42,8.16,18.87a1.1,1.1,0,0,1-.34-1.48c.17-.34.76-.34,1.31,0,.82.48,6.56,3.71,7.8,4.47s2.89,1.14,3.23.86.55-1.31-.14-3S19,17,19.5,16.46s.72-.21,1.1.24,2.23,3.23,3.09,4.71,1.92,4.13,2.44,4.92a9.12,9.12,0,0,0,3,2.82,15.89,15.89,0,0,0,4.6-8.46,17,17,0,0,0-2.3-12.28A16.56,16.56,0,0,0,22.86,1.6"/>
        <path class="cls-5" d="M171.34,22.89,176,12l4.43,10.94h-1L178,19.33h-4.3l-1.39,3.56ZM174,18.51h3.66l-1.8-4.58Zm-4.83-6.14h1V22.89h-1ZM158.94,22.89V12.37h1.64a15.38,15.38,0,0,1,3.11.22,3.94,3.94,0,0,1,1.58.74,4.43,4.43,0,0,1,1.34,1.8,6.47,6.47,0,0,1,.46,2.51,6.5,6.5,0,0,1-.46,2.52,4.14,4.14,0,0,1-2.88,2.51,12.59,12.59,0,0,1-2.82.22h-2Zm1-.83h1.34a10,10,0,0,0,2.31-.18,2.72,2.72,0,0,0,1.16-.62,3.87,3.87,0,0,0,1-1.54,6.06,6.06,0,0,0,.34-2.1,6.11,6.11,0,0,0-.34-2.13,3.67,3.67,0,0,0-1-1.51,2.87,2.87,0,0,0-1.23-.64,11.68,11.68,0,0,0-2.54-.19h-1ZM148,22.89v-11l7.45,8.8V12.37h.89V23.2l-7.44-8.82v8.51Zm-3.58-10.52h1V22.89h-1Zm-6.83,2.75a6.46,6.46,0,0,1,.46,2.51,6.48,6.48,0,0,1-.46,2.52,4.13,4.13,0,0,1-2.88,2.51,12.59,12.59,0,0,1-2.82.22h-2V12.37h1.64a15.39,15.39,0,0,1,3.11.22,3.93,3.93,0,0,1,1.58.74,4.42,4.42,0,0,1,1.34,1.8m-6.71,6.94h1.34a10,10,0,0,0,2.31-.18,2.7,2.7,0,0,0,1.15-.62,3.87,3.87,0,0,0,1-1.54,6,6,0,0,0,.34-2.1,6.07,6.07,0,0,0-.34-2.13,3.67,3.67,0,0,0-1-1.51,2.87,2.87,0,0,0-1.23-.64,11.68,11.68,0,0,0-2.54-.19h-1Zm-11.92.83v-11l7.45,8.8V12.37h.89V23.2l-7.44-8.82v8.51Zm-10.23,0L113.32,12l4.43,10.94h-1l-1.34-3.56h-4.3l-1.39,3.56Zm2.69-4.38h3.66l-1.8-4.58ZM99.88,22.89V12.37h1v4.27h5.73V12.37h1V22.89h-1V17.46h-5.73v5.43Zm-15.21,0v-11l7.45,8.8V12.37H93V23.2l-7.44-8.82v8.51ZM81.1,12.37h1V22.89h-1ZM66.6,22.89V12.37h1.64a15.38,15.38,0,0,1,3.11.22,3.93,3.93,0,0,1,1.58.74,4.43,4.43,0,0,1,1.34,1.8,6.47,6.47,0,0,1,.46,2.51,6.5,6.5,0,0,1-.46,2.52,4.14,4.14,0,0,1-2.88,2.51,12.59,12.59,0,0,1-2.82.22h-2Zm1-.83H68.9a10,10,0,0,0,2.31-.18,2.71,2.71,0,0,0,1.15-.62,3.88,3.88,0,0,0,1-1.54,6,6,0,0,0,.34-2.1,6.07,6.07,0,0,0-.34-2.13,3.67,3.67,0,0,0-1-1.51,2.87,2.87,0,0,0-1.23-.64,11.68,11.68,0,0,0-2.54-.19h-1Zm-11.92.83v-11l7.45,8.8V12.37H64V23.2l-7.44-8.82v8.51Zm-10.23,0L50,12l4.43,10.94h-1l-1.34-3.56h-4.3l-1.39,3.56Zm2.69-4.38h3.66L50,13.93ZM36.59,22.89V12.37h1v4.27h5.72V12.37h1V22.89h-1V17.46H37.55v5.43Z"/>
      </g>
    </g>
  </g>
</svg>
